<?xml version="1.0" encoding="UTF-8"?>
<svg width="13px" height="13px" viewBox="0 0 13 13" version="1.1" xmlns="http://www.w3.org/2000/svg" xmlns:xlink="http://www.w3.org/1999/xlink">
    <title>Artboard Copy 3</title>
    <g id="Artboard-Copy-3" stroke="none" stroke-width="1" fill="none" fill-rule="evenodd">
        <g id="Group" transform="translate(-0.000000, 0.000000)">
            <rect id="Rectangle" fill="#E30613" fill-rule="nonzero" x="-7.10542736e-15" y="-1.42108547e-14" width="13.2" height="13.2"></rect>
            <g transform="translate(0.500000, 4.400000)">
                <polygon id="Path" fill="#FFFFFF" fill-rule="nonzero" points="1.7 0.6 1.7 4.3 0.9 4.3 0.9 0.6 -7.10542736e-15 0.6 -7.10542736e-15 0 2.6 0 2.6 0.6"></polygon>
                <g transform="translate(2.900000, 1.000000)">
                    <path d="M3.2,1.9 C3,1.9 2.9,2 2.8,2.1 C2.7,2.2 2.7,2.3 2.7,2.5 C2.7,2.6 2.7,2.8 2.8,2.8 C2.9,2.9 3,2.9 3.1,2.9 C3.2,2.9 3.4,2.9 3.5,2.8 C3.6,2.7 3.7,2.6 3.7,2.4 L3.7,1.9 C3.7,1.9 3.6,1.9 3.5,1.9 C3.4,1.9 3.3,1.9 3.2,1.9 Z" id="Path"></path>
                    <path d="M0.7,1.3 C0.7,1.2 0.7,1.1 0.8,1 C0.8,0.9 0.9,0.9 1,0.8 C1.1,0.8 1.2,0.7 1.3,0.7 C1.4,0.7 1.4,0.7 1.5,0.7 L1.7,1.42108547e-14 C1.7,1.42108547e-14 1.6,1.42108547e-14 1.6,1.42108547e-14 C1.6,1.42108547e-14 1.5,1.42108547e-14 1.5,1.42108547e-14 C1.3,1.42108547e-14 1.2,1.42108547e-14 1.1,0.1 C1,0.2 0.9,0.3 0.8,0.5 L0.7,0.1 L-7.10542736e-15,0.1 L-7.10542736e-15,3.3 L0.8,3.3 L0.8,1.5 C0.7,1.5 0.7,1.4 0.7,1.3 Z" id="Path" fill="#FFFFFF" fill-rule="nonzero"></path>
                    <path d="M3.4,1.4 C3.3,1.4 3.2,1.4 3.1,1.4 C2.9,1.4 2.8,1.4 2.6,1.5 C2.4,1.5 2.3,1.6 2.2,1.7 C2.1,1.8 2,1.9 2,2 C1.9,2.1 1.9,2.3 1.9,2.4 C1.9,2.7 2,2.9 2.1,3.1 C2.3,3.3 2.5,3.4 2.8,3.4 C3,3.4 3.1,3.4 3.3,3.3 C3.4,3.2 3.5,3.1 3.6,3 L3.7,3.4 L4.4,3.4 C4.4,3.3 4.4,3.2 4.4,3.1 C4.4,3 4.4,2.9 4.4,2.8 L4.4,1 C4.4,0.7 4.3,0.5 4.1,0.3 C3.9,0.1 3.6,0.1 3.3,0.1 C3.1,0.1 3,0.1 2.8,0.1 C2.6,0.1 2.4,0.2 2.3,0.2 L2.4,0.7 C2.5,0.6 2.6,0.6 2.8,0.6 C2.9,0.6 3.1,0.6 3.2,0.6 C3.4,0.6 3.5,0.6 3.6,0.7 C3.7,0.8 3.7,0.9 3.7,1.1 L3.7,1.5 C3.6,1.5 3.5,1.4 3.4,1.4 Z M3.7,2.4 C3.7,2.5 3.6,2.7 3.5,2.8 C3.4,2.9 3.3,2.9 3.1,2.9 C3,2.9 2.9,2.9 2.8,2.8 C2.7,2.7 2.7,2.6 2.7,2.5 C2.7,2.4 2.7,2.2 2.8,2.1 C2.9,1.9 3.1,1.9 3.2,1.9 C3.3,1.9 3.4,1.9 3.4,1.9 C3.5,1.9 3.5,1.9 3.6,1.9 L3.6,2.4 L3.7,2.4 Z" id="Shape" fill="#FFFFFF" fill-rule="nonzero"></path>
                    <path d="M9.1,0.4 C9,0.3 8.9,0.2 8.8,0.2 C8.7,0.1 8.6,0.1 8.4,0.1 C8.2,0.1 8,0.1 7.9,0.2 C7.8,0.3 7.7,0.4 7.6,0.6 C7.6,0.5 7.5,0.5 7.5,0.4 C7.5,0.3 7.4,0.3 7.3,0.2 C7.2,0.2 7.2,0.1 7.1,0.1 C7,0.1 6.9,0.1 6.8,0.1 C6.6,0.1 6.4,0.1 6.3,0.2 C6.2,0.3 6.1,0.4 6,0.6 L5.9,0.2 L5.2,0.2 L5.2,3.4 L6,3.4 L6,1.4 C6,1.3 6,1.2 6,1.2 C6,1.1 6,1 6.1,1 C6.1,0.9 6.2,0.9 6.2,0.8 C6.3,0.8 6.3,0.7 6.4,0.7 C6.5,0.7 6.7,0.7 6.7,0.8 C6.8,0.9 6.8,1 6.8,1.2 L6.8,3.4 L7.6,3.4 L7.6,1.4 C7.6,1.3 7.6,1.2 7.6,1.2 C7.6,1.1 7.6,1 7.7,1 C7.7,0.9 7.8,0.9 7.8,0.8 C7.9,0.8 7.9,0.7 8,0.7 C8.1,0.7 8.3,0.8 8.3,0.9 C8.4,1 8.4,1.1 8.4,1.3 L8.4,3.5 L9.2,3.5 L9.2,1.2 C9.2,1.1 9.2,0.9 9.1,0.8 C9.2,0.6 9.2,0.4 9.1,0.4 Z" id="Path" fill="#FFFFFF" fill-rule="nonzero"></path>
                </g>
            </g>
        </g>
    </g>
</svg>