<?xml version="1.0" encoding="UTF-8"?>
<svg width="13px" height="13px" viewBox="0 0 13 13" version="1.1" xmlns="http://www.w3.org/2000/svg" xmlns:xlink="http://www.w3.org/1999/xlink">
    <title>Artboard Copy</title>
    <g id="Artboard-Copy" stroke="none" stroke-width="1" fill="none" fill-rule="evenodd">
        <rect id="Rectangle" fill="#0065AE" fill-rule="nonzero" x="-5.32907052e-15" y="1.77635684e-15" width="13.2" height="13.2"></rect>
        <path d="M7.9,1.8 L7.9,7.7 C7.9,8 7.9,8.2 7.8,8.5 C7.8,8.7 7.7,8.9 7.6,9.1 C7.5,9.3 7.4,9.4 7.2,9.5 C6.9,9.7 6.2,9.7 5.9,9.5 C5.7,9.4 5.6,9.3 5.5,9.1 C5.4,8.9 5.3,8.7 5.3,8.5 C5.3,8.3 5.2,8 5.2,7.7 L5.2,1.8 L2.8,1.8 L2.8,7.8 C2.8,8.9 3.1,9.8 3.7,10.5 C4.3,11.2 5.2,11.5 6.5,11.5 C7.7,11.5 8.6,11.2 9.2,10.5 C9.8,9.9 10.1,9 10.1,7.8 L10.1,1.8 L7.9,1.8 Z" id="Path" fill="#FFFFFF" fill-rule="nonzero"></path>
    </g>
</svg>